<?xml version="1.0" encoding="UTF-8"?><svg xmlns="http://www.w3.org/2000/svg" viewBox="0 0 1000 300.64"><defs><style>.e{fill:none;}.f{fill:#fff;}</style></defs><g id="a"><rect class="e" width="1000" height="300.64"/><rect class="e" width="1000" height="300.64"/></g><g id="b"><polygon class="f" points="124.54 88.08 161.9 88.07 161.9 132.9 266.51 132.9 266.5 88.07 303.86 88.07 303.87 212.6 266.51 212.6 266.51 162.79 161.9 162.79 161.91 212.6 124.55 212.61 124.54 88.08"/><rect class="f" x="344.96" y="88.06" width="37.36" height="124.53"/><path class="f" d="m501.86,80.58c43.29,0,87.17,28.81,87.17,69.73,0,40.92-43.87,69.74-87.17,69.74-43.29,0-87.17-28.81-87.17-69.73,0-40.92,43.87-69.74,87.17-69.74Zm0,12.45c-30.88,0-44.83,39.32-44.83,64.76,0,25.31,20.39,44.83,44.83,44.83,24.44,0,44.83-19.53,44.83-44.83,0-25.43-13.95-64.75-44.83-64.75Z"/><rect class="f" x="621.42" y="88.05" width="37.36" height="124.53"/><polygon class="f" points="740.96 88.04 800.74 88.04 716.06 145.33 813.2 212.57 750.93 212.57 658.78 145.33 740.96 88.04"/><rect class="f" x="838.1" y="88.04" width="37.36" height="124.53"/></g></svg>