<?xml version="1.0" encoding="UTF-8"?>
<svg id="_レイヤー_1" data-name="レイヤー 1" xmlns="http://www.w3.org/2000/svg" version="1.1" viewBox="0 0 1191.6 115.6">
  <defs>
    <style>
      .cls-1 {
        fill-rule: evenodd;
      }

      .cls-1, .cls-2 {
        fill: #fff;
        stroke-width: 0px;
      }
    </style>
  </defs>
  <g id="l">
    <polygon class="cls-2" points="83.2 32 83.2 54.4 40.9 54.4 40.9 32 32 32 32 83.6 40.9 83.6 40.9 61.2 83.2 61.2 83.2 83.6 92.1 83.6 92.1 32 83.2 32"/>
    <rect class="cls-2" x="102" y="32" width="8.9" height="51.6"/>
    <path class="cls-2" d="M150.3,29.4c-16.8,0-30.4,12.5-30.4,29.3s13.6,27.9,30.4,27.9,30.4-11.1,30.4-27.9-13.6-29.3-30.4-29.3ZM149.8,81.8c-11.4,0-20.6-11.8-20.6-23.1s9.2-25.4,20.6-25.4,20.6,14,20.6,25.4-9.2,23.1-20.6,23.1Z"/>
    <rect class="cls-2" x="189.6" y="32" width="8.9" height="51.6"/>
    <polygon class="cls-2" points="198.6 55.5 231.9 32 247.1 32 212.8 55.5 254.1 83.6 237 83.6 198.6 55.5"/>
    <rect class="cls-2" x="260.5" y="32" width="8.9" height="51.6"/>
    <polygon class="cls-1" points="365.8 39.5 365.8 32 310.1 32 310.1 83.6 365.7 83.6 365.7 76.1 319 76.1 319 59.9 364.7 59.9 364.7 53.5 319 53.5 319 39.5 365.8 39.5 365.8 39.5"/>
    <rect class="cls-2" x="375.2" y="74.5" width="9.2" height="8.8"/>
    <polygon class="cls-1" points="465.7 39.5 465.7 32 410 32 410 83.6 465.6 83.6 465.6 76.1 419 76.1 419 59.9 464.6 59.9 464.6 53.5 419 53.5 419 39.5 465.7 39.5 465.7 39.5"/>
    <rect class="cls-2" x="474.5" y="74.7" width="9.2" height="8.8"/>
    <path class="cls-2" d="M561.5,67.2v.5c0,4.5-3.6,8.1-8,8.1h-22.7c-4.4,0-8-3.6-8-8.1v-20.2c0-4.4,3.6-8,8-8h22.7c4.4,0,8,3.7,8,8v.6h8.8v-.8c0-8.8-7.3-16.1-16.1-16.1h-24.1c-8.9,0-16.1,7.2-16.1,16.1v21c0,8.9,7.3,16.1,16.1,16.1h24.1c8.8,0,16.1-7.3,16.1-16.1v-1.1h-8.8Z"/>
    <path class="cls-2" d="M620.6,31.3h-25.2c-9.2,0-16.4,7.1-16.4,16.3v21c0,8.5,7.2,15.6,16.4,15.6h25.2c9.3,0,16.4-7.1,16.4-15.6v-21c0-9.2-7.1-16.3-16.4-16.3ZM628.3,68.9c0,4.6-3.7,7.5-8.4,7.5h-23.9c-4.6,0-8.4-2.9-8.4-7.5v-22c0-4.6,3.8-8.4,8.4-8.4h23.9c4.6,0,8.4,3.8,8.4,8.4v22Z"/>
    <path class="cls-2" d="M691.4,60.4h2.4c6.7,0,9.8-3.9,10.9-8.2.8-3.7.8-8.3.1-10.8-1.2-5.2-4.4-9.4-12.7-9.4h-46.4v51.7h8.6v-23.2h27.8l14.1,23.2h9.5l-14.3-23.2h0ZM654.3,53.4v-14.5h38.5c1.3,0,3.4,1.2,3.7,2.7.5,2.4.5,6.8.1,9.3-.3,1.5-1.9,2.6-3.5,2.6h-38.7s0,0,0,0Z"/>
    <path class="cls-2" d="M768.5,57c4.2-4.4,4.5-15.4.8-20.7-2.3-3.4-6-4.3-9.8-4.4h-47.3v51.6h8.6v-23.1h38.7c2.7,0,6.1-.3,9-3.4h0ZM763.3,46.3c0,5.7-1.2,7.1-4.2,7.1h-38.3v-14.5h38c3.5,0,4.5,2.1,4.5,7.4h0Z"/>
    <path class="cls-2" d="M818.8,31.3h-25.2c-9.2,0-16.4,7.1-16.4,16.3v21c0,8.5,7.2,15.6,16.4,15.6h25.2c9.2,0,16.4-7.1,16.4-15.6v-21c0-9.2-7.1-16.3-16.4-16.3ZM826.6,68.9c0,4.6-3.7,7.5-8.4,7.5h-23.9c-4.6,0-8.4-2.9-8.4-7.5v-22c0-4.6,3.8-8.4,8.4-8.4h23.9c4.6,0,8.4,3.8,8.4,8.4v22Z"/>
    <path class="cls-2" d="M888.3,60.4h2.4c6.7,0,9.8-3.9,10.9-8.2.8-3.7.8-8.3.1-10.8-1.2-5.2-4.4-9.4-12.7-9.4h-46.4v51.7h8.6v-23.2h27.8l14.1,23.2h9.5l-14.3-23.2h0ZM851.2,53.4v-14.5h38.5c1.3,0,3.4,1.2,3.7,2.7.5,2.4.5,6.8,0,9.3-.3,1.5-1.9,2.6-3.5,2.6h-38.7s0,0,0,0Z"/>
    <path class="cls-2" d="M954.3,83.6h9.4s-23.9-51.8-23.9-51.8h-.2c0,0,0,0,0,0h-15.7l-24,51.8h9.4s4.9-10.9,4.9-10.9h35l5,10.9h0ZM918.2,64.1l12-26.4h3.3l12,26.4h-27.3Z"/>
    <polygon class="cls-2" points="952.4 39.7 977.2 39.7 977.2 83.7 986.2 83.7 986.2 39.7 1010.8 39.7 1010.8 32.1 952.4 32.1 952.4 39.7"/>
    <rect class="cls-2" x="1018" y="32" width="8.9" height="51.6"/>
    <path class="cls-2" d="M1076.7,31.3h-25.2c-9.2,0-16.4,7.1-16.4,16.3v21c0,8.5,7.2,15.6,16.4,15.6h25.2c9.2,0,16.4-7.1,16.4-15.6v-21c0-9.2-7.1-16.3-16.4-16.3ZM1084.4,68.9c0,4.6-3.7,7.5-8.4,7.5h-23.8c-4.6,0-8.4-2.9-8.4-7.5v-22c0-4.6,3.8-8.4,8.4-8.4h23.8c4.6,0,8.4,3.8,8.4,8.4v22Z"/>
    <polygon class="cls-2" points="1150.5 32 1150.5 69.6 1110.8 32 1101.8 32 1101.8 83.6 1110.8 83.6 1110.8 44.4 1150.5 83.3 1150.5 83.6 1159.6 83.6 1159.6 32 1150.5 32"/>
  </g>
</svg>